<?xml version="1.0" encoding="UTF-8"?><svg xmlns="http://www.w3.org/2000/svg" xmlns:xlink="http://www.w3.org/1999/xlink" width="375" zoomAndPan="magnify" viewBox="0 0 375 374.999991" height="374.999991" preserveAspectRatio="xMidYMid meet" version="1.0"><defs><clipPath id="clip-0"><path d="M 69 22.464844 L 141 22.464844 L 141 94 L 69 94 Z M 69 22.464844 " clip-rule="nonzero"/></clipPath><clipPath id="clip-1"><path d="M 234 22.464844 L 306 22.464844 L 306 94 L 234 94 Z M 234 22.464844 " clip-rule="nonzero"/></clipPath><clipPath id="clip-2"><path d="M 34.222656 104 L 340.972656 104 L 340.972656 352.464844 L 34.222656 352.464844 Z M 34.222656 104 " clip-rule="nonzero"/></clipPath></defs><rect x="-37.5" width="450" fill="rgb(100%, 100%, 100%)" y="-37.499999" height="449.999989" fill-opacity="1"/><rect x="-37.5" width="450" fill="rgb(100%, 100%, 100%)" y="-37.499999" height="449.999989" fill-opacity="1"/><rect x="-37.5" width="450" fill="rgb(100%, 34.509277%, 34.509277%)" y="-37.499999" height="449.999989" fill-opacity="1"/><g clip-path="url(#clip-0)"><path fill="rgb(100%, 98.429871%, 98.429871%)" d="M 140.417969 57.824219 C 140.417969 58.980469 140.359375 60.136719 140.246094 61.289062 C 140.132812 62.441406 139.964844 63.585938 139.738281 64.71875 C 139.511719 65.855469 139.230469 66.976562 138.894531 68.085938 C 138.558594 69.195312 138.167969 70.28125 137.722656 71.351562 C 137.28125 72.421875 136.785156 73.46875 136.238281 74.488281 C 135.691406 75.511719 135.097656 76.503906 134.453125 77.464844 C 133.808594 78.429688 133.121094 79.359375 132.382812 80.253906 C 131.648438 81.148438 130.871094 82.003906 130.050781 82.824219 C 129.234375 83.640625 128.375 84.417969 127.480469 85.152344 C 126.582031 85.886719 125.652344 86.578125 124.691406 87.21875 C 123.726562 87.863281 122.734375 88.457031 121.710938 89.003906 C 120.691406 89.550781 119.644531 90.042969 118.574219 90.488281 C 117.5 90.929688 116.410156 91.320312 115.304688 91.65625 C 114.195312 91.992188 113.070312 92.273438 111.933594 92.5 C 110.796875 92.726562 109.652344 92.894531 108.5 93.007812 C 107.347656 93.121094 106.191406 93.179688 105.03125 93.179688 C 103.871094 93.179688 102.714844 93.121094 101.5625 93.007812 C 100.410156 92.894531 99.265625 92.726562 98.128906 92.5 C 96.992188 92.273438 95.867188 91.992188 94.757812 91.65625 C 93.648438 91.320312 92.558594 90.929688 91.488281 90.488281 C 90.417969 90.042969 89.371094 89.550781 88.347656 89.003906 C 87.328125 88.457031 86.335938 87.863281 85.371094 87.21875 C 84.40625 86.578125 83.476562 85.886719 82.582031 85.152344 C 81.6875 84.417969 80.828125 83.640625 80.007812 82.824219 C 79.1875 82.003906 78.410156 81.148438 77.675781 80.253906 C 76.941406 79.359375 76.25 78.429688 75.609375 77.464844 C 74.964844 76.503906 74.367188 75.511719 73.824219 74.488281 C 73.277344 73.46875 72.78125 72.421875 72.335938 71.351562 C 71.894531 70.28125 71.503906 69.195312 71.167969 68.085938 C 70.832031 66.976562 70.550781 65.855469 70.324219 64.71875 C 70.097656 63.585938 69.929688 62.441406 69.816406 61.289062 C 69.699219 60.136719 69.644531 58.980469 69.644531 57.824219 C 69.644531 56.664062 69.699219 55.507812 69.816406 54.355469 C 69.929688 53.203125 70.097656 52.058594 70.324219 50.925781 C 70.550781 49.789062 70.832031 48.667969 71.167969 47.558594 C 71.503906 46.449219 71.894531 45.363281 72.335938 44.292969 C 72.78125 43.222656 73.277344 42.175781 73.824219 41.15625 C 74.367188 40.132812 74.964844 39.140625 75.609375 38.179688 C 76.25 37.214844 76.941406 36.285156 77.675781 35.390625 C 78.410156 34.496094 79.1875 33.640625 80.007812 32.820312 C 80.828125 32.003906 81.6875 31.226562 82.582031 30.492188 C 83.476562 29.757812 84.40625 29.066406 85.371094 28.425781 C 86.335938 27.78125 87.328125 27.1875 88.347656 26.640625 C 89.371094 26.09375 90.417969 25.601562 91.488281 25.15625 C 92.558594 24.714844 93.648438 24.324219 94.757812 23.988281 C 95.867188 23.652344 96.992188 23.371094 98.128906 23.144531 C 99.265625 22.917969 100.410156 22.75 101.5625 22.636719 C 102.714844 22.523438 103.871094 22.464844 105.03125 22.464844 C 106.191406 22.464844 107.347656 22.523438 108.5 22.636719 C 109.652344 22.75 110.796875 22.917969 111.933594 23.144531 C 113.070312 23.371094 114.195312 23.652344 115.304688 23.988281 C 116.410156 24.324219 117.5 24.714844 118.574219 25.15625 C 119.644531 25.601562 120.691406 26.09375 121.710938 26.640625 C 122.734375 27.1875 123.726562 27.78125 124.691406 28.425781 C 125.652344 29.066406 126.582031 29.757812 127.480469 30.492188 C 128.375 31.226562 129.234375 32.003906 130.050781 32.820312 C 130.871094 33.640625 131.648438 34.496094 132.382812 35.390625 C 133.121094 36.285156 133.808594 37.214844 134.453125 38.179688 C 135.097656 39.140625 135.691406 40.132812 136.238281 41.15625 C 136.785156 42.175781 137.28125 43.222656 137.722656 44.292969 C 138.167969 45.363281 138.558594 46.449219 138.894531 47.558594 C 139.230469 48.667969 139.511719 49.789062 139.738281 50.925781 C 139.964844 52.058594 140.132812 53.203125 140.246094 54.355469 C 140.359375 55.507812 140.417969 56.664062 140.417969 57.824219 Z M 140.417969 57.824219 " fill-opacity="1" fill-rule="nonzero"/></g><g clip-path="url(#clip-1)"><path fill="rgb(100%, 98.429871%, 98.429871%)" d="M 234.78125 57.824219 L 234.78125 80.449219 C 234.78125 81.285156 234.863281 82.113281 235.027344 82.933594 C 235.1875 83.753906 235.429688 84.550781 235.75 85.320312 C 236.070312 86.09375 236.464844 86.828125 236.925781 87.523438 C 237.390625 88.21875 237.921875 88.859375 238.511719 89.453125 C 239.101562 90.042969 239.746094 90.570312 240.441406 91.035156 C 241.136719 91.5 241.871094 91.890625 242.644531 92.210938 C 243.417969 92.53125 244.214844 92.773438 245.035156 92.933594 C 245.855469 93.097656 246.683594 93.179688 247.519531 93.179688 L 292.816406 93.179688 C 293.652344 93.179688 294.480469 93.097656 295.300781 92.933594 C 296.121094 92.773438 296.917969 92.53125 297.691406 92.210938 C 298.460938 91.890625 299.195312 91.5 299.890625 91.035156 C 300.585938 90.570312 301.230469 90.042969 301.824219 89.453125 C 302.414062 88.859375 302.941406 88.21875 303.40625 87.523438 C 303.871094 86.828125 304.265625 86.09375 304.582031 85.320312 C 304.902344 84.550781 305.144531 83.753906 305.308594 82.933594 C 305.472656 82.113281 305.554688 81.285156 305.554688 80.449219 L 305.554688 57.824219 C 305.554688 56.664062 305.496094 55.507812 305.382812 54.355469 C 305.269531 53.203125 305.101562 52.058594 304.875 50.925781 C 304.648438 49.789062 304.367188 48.667969 304.03125 47.558594 C 303.695312 46.449219 303.304688 45.363281 302.859375 44.292969 C 302.417969 43.222656 301.921875 42.175781 301.375 41.15625 C 300.828125 40.132812 300.234375 39.140625 299.589844 38.179688 C 298.945312 37.214844 298.257812 36.285156 297.519531 35.390625 C 296.785156 34.496094 296.007812 33.640625 295.1875 32.820312 C 294.371094 32.003906 293.511719 31.226562 292.617188 30.492188 C 291.71875 29.757812 290.789062 29.066406 289.828125 28.425781 C 288.863281 27.78125 287.871094 27.1875 286.847656 26.640625 C 285.824219 26.09375 284.78125 25.601562 283.707031 25.15625 C 282.636719 24.714844 281.546875 24.324219 280.4375 23.988281 C 279.332031 23.652344 278.207031 23.371094 277.070312 23.144531 C 275.933594 22.917969 274.789062 22.75 273.636719 22.636719 C 272.480469 22.523438 271.324219 22.464844 270.167969 22.464844 C 269.007812 22.464844 267.851562 22.523438 266.699219 22.636719 C 265.546875 22.75 264.398438 22.917969 263.261719 23.144531 C 262.125 23.371094 261.003906 23.652344 259.894531 23.988281 C 258.785156 24.324219 257.695312 24.714844 256.625 25.15625 C 255.554688 25.601562 254.507812 26.09375 253.484375 26.640625 C 252.464844 27.1875 251.472656 27.78125 250.507812 28.425781 C 249.542969 29.066406 248.613281 29.757812 247.71875 30.492188 C 246.824219 31.226562 245.964844 32.003906 245.144531 32.820312 C 244.324219 33.640625 243.546875 34.496094 242.8125 35.390625 C 242.078125 36.285156 241.386719 37.214844 240.746094 38.179688 C 240.101562 39.140625 239.503906 40.132812 238.960938 41.15625 C 238.414062 42.175781 237.917969 43.222656 237.472656 44.292969 C 237.03125 45.363281 236.640625 46.449219 236.304688 47.558594 C 235.96875 48.667969 235.6875 49.789062 235.460938 50.925781 C 235.234375 52.058594 235.066406 53.203125 234.953125 54.355469 C 234.835938 55.507812 234.78125 56.664062 234.78125 57.824219 Z M 234.78125 57.824219 " fill-opacity="1" fill-rule="nonzero"/></g><g clip-path="url(#clip-2)"><path fill="rgb(100%, 98.429871%, 98.429871%)" d="M 312.160156 104.964844 L 245.101562 104.964844 L 219.742188 105.378906 C 215.183594 105.417969 210.691406 105.972656 206.257812 107.035156 C 201.828125 108.101562 197.574219 109.648438 193.496094 111.683594 C 192.660156 112.117188 191.78125 112.445312 190.863281 112.667969 C 189.945312 112.890625 189.015625 113.003906 188.070312 113.003906 C 187.125 113.003906 186.195312 112.890625 185.277344 112.667969 C 184.359375 112.445312 183.484375 112.117188 182.644531 111.683594 C 178.511719 109.464844 174.167969 107.785156 169.617188 106.648438 C 165.066406 105.511719 160.441406 104.949219 155.75 104.964844 L 63.039062 104.964844 C 62.09375 104.964844 61.15625 105.007812 60.214844 105.097656 C 59.277344 105.1875 58.34375 105.324219 57.417969 105.507812 C 56.496094 105.691406 55.582031 105.917969 54.675781 106.191406 C 53.773438 106.460938 52.886719 106.777344 52.015625 107.136719 C 51.144531 107.5 50.292969 107.898438 49.460938 108.34375 C 48.628906 108.785156 47.820312 109.269531 47.035156 109.792969 C 46.25 110.316406 45.492188 110.878906 44.765625 111.472656 C 44.035156 112.070312 43.335938 112.703125 42.671875 113.371094 C 42.003906 114.035156 41.371094 114.734375 40.773438 115.464844 C 40.175781 116.191406 39.613281 116.949219 39.089844 117.730469 C 38.566406 118.515625 38.082031 119.324219 37.640625 120.15625 C 37.195312 120.984375 36.792969 121.835938 36.433594 122.707031 C 36.074219 123.578125 35.757812 124.464844 35.484375 125.367188 C 35.210938 126.269531 34.984375 127.183594 34.800781 128.109375 C 34.617188 129.03125 34.480469 129.964844 34.390625 130.902344 C 34.300781 131.839844 34.257812 132.78125 34.257812 133.722656 L 34.257812 199.722656 C 34.289062 200.476562 34.390625 201.21875 34.5625 201.953125 C 34.734375 202.6875 34.976562 203.398438 35.289062 204.085938 C 35.597656 204.777344 35.96875 205.429688 36.40625 206.042969 C 36.839844 206.660156 37.332031 207.230469 37.875 207.753906 C 38.417969 208.273438 39.007812 208.742188 39.644531 209.152344 C 40.277344 209.558594 40.945312 209.90625 41.644531 210.1875 C 42.347656 210.46875 43.066406 210.679688 43.808594 210.824219 C 44.550781 210.964844 45.296875 211.039062 46.054688 211.035156 C 46.828125 211.035156 47.59375 211.113281 48.355469 211.261719 C 49.113281 211.414062 49.851562 211.636719 50.566406 211.933594 C 51.28125 212.230469 51.960938 212.59375 52.605469 213.023438 C 53.25 213.453125 53.847656 213.941406 54.394531 214.488281 C 54.941406 215.035156 55.429688 215.632812 55.859375 216.273438 C 56.292969 216.917969 56.65625 217.597656 56.949219 218.3125 C 57.246094 219.027344 57.472656 219.765625 57.621094 220.523438 C 57.773438 221.28125 57.847656 222.046875 57.847656 222.824219 L 57.847656 333.785156 C 57.828125 334.9375 57.917969 336.082031 58.113281 337.21875 C 58.304688 338.351562 58.605469 339.460938 59.007812 340.539062 C 59.410156 341.621094 59.910156 342.652344 60.507812 343.640625 C 61.105469 344.625 61.789062 345.550781 62.558594 346.40625 C 63.328125 347.265625 64.167969 348.046875 65.085938 348.746094 C 66 349.445312 66.972656 350.054688 68.003906 350.574219 C 69.035156 351.09375 70.105469 351.511719 71.210938 351.828125 C 72.320312 352.144531 73.449219 352.359375 74.597656 352.464844 C 75.195312 352.496094 75.796875 352.5 76.394531 352.46875 C 76.996094 352.441406 77.589844 352.382812 78.183594 352.292969 C 78.777344 352.203125 79.363281 352.082031 79.945312 351.933594 C 80.523438 351.785156 81.097656 351.605469 81.660156 351.398438 C 82.222656 351.191406 82.773438 350.957031 83.3125 350.695312 C 83.851562 350.429688 84.375 350.140625 84.882812 349.824219 C 85.394531 349.507812 85.886719 349.167969 86.359375 348.800781 C 86.835938 348.433594 87.289062 348.046875 87.722656 347.632812 C 88.160156 347.21875 88.570312 346.785156 88.960938 346.332031 C 89.351562 345.878906 89.71875 345.40625 90.0625 344.914062 C 90.40625 344.421875 90.722656 343.914062 91.011719 343.390625 C 91.304688 342.863281 91.566406 342.328125 91.804688 341.777344 C 92.039062 341.226562 92.25 340.664062 92.425781 340.09375 C 92.605469 339.519531 92.757812 338.941406 92.875 338.355469 C 92.996094 337.769531 93.085938 337.175781 93.144531 336.578125 C 93.207031 335.984375 93.234375 335.386719 93.234375 334.785156 L 93.234375 270.613281 C 93.207031 269.894531 93.242188 269.179688 93.339844 268.46875 C 93.441406 267.753906 93.601562 267.054688 93.820312 266.371094 C 94.042969 265.6875 94.324219 265.03125 94.664062 264.394531 C 95.003906 263.761719 95.394531 263.160156 95.839844 262.59375 C 96.285156 262.03125 96.777344 261.507812 97.3125 261.03125 C 97.851562 260.550781 98.425781 260.125 99.039062 259.746094 C 99.652344 259.371094 100.292969 259.050781 100.960938 258.789062 C 101.632812 258.523438 102.320312 258.320312 103.027344 258.179688 C 103.449219 258.105469 103.878906 258.054688 104.3125 258.03125 C 104.742188 258.003906 105.171875 258 105.605469 258.023438 C 106.035156 258.042969 106.464844 258.085938 106.890625 258.15625 C 107.320312 258.222656 107.742188 258.316406 108.15625 258.429688 C 108.574219 258.542969 108.984375 258.679688 109.382812 258.839844 C 109.785156 259 110.175781 259.179688 110.558594 259.382812 C 110.941406 259.582031 111.308594 259.804688 111.667969 260.050781 C 112.023438 260.292969 112.367188 260.554688 112.695312 260.835938 C 113.023438 261.113281 113.335938 261.414062 113.632812 261.726562 C 113.925781 262.042969 114.203125 262.371094 114.464844 262.71875 C 114.722656 263.0625 114.964844 263.421875 115.183594 263.792969 C 115.402344 264.164062 115.601562 264.546875 115.78125 264.9375 C 115.957031 265.332031 116.113281 265.734375 116.246094 266.144531 C 116.382812 266.554688 116.492188 266.972656 116.582031 267.394531 C 116.667969 267.816406 116.734375 268.242188 116.773438 268.671875 C 116.816406 269.101562 116.832031 269.535156 116.824219 269.964844 L 116.824219 333.785156 C 116.804688 334.9375 116.894531 336.082031 117.089844 337.21875 C 117.285156 338.351562 117.582031 339.460938 117.984375 340.539062 C 118.386719 341.621094 118.886719 342.652344 119.484375 343.640625 C 120.082031 344.625 120.765625 345.550781 121.535156 346.40625 C 122.304688 347.265625 123.148438 348.046875 124.0625 348.746094 C 124.976562 349.445312 125.953125 350.054688 126.980469 350.574219 C 128.011719 351.09375 129.082031 351.511719 130.191406 351.828125 C 131.296875 352.144531 132.425781 352.359375 133.574219 352.464844 C 134.175781 352.496094 134.773438 352.5 135.371094 352.46875 C 135.972656 352.441406 136.566406 352.382812 137.160156 352.292969 C 137.753906 352.203125 138.339844 352.082031 138.921875 351.933594 C 139.503906 351.785156 140.074219 351.605469 140.636719 351.398438 C 141.199219 351.191406 141.75 350.957031 142.289062 350.695312 C 142.828125 350.429688 143.351562 350.140625 143.859375 349.824219 C 144.371094 349.507812 144.863281 349.167969 145.335938 348.800781 C 145.8125 348.433594 146.265625 348.046875 146.703125 347.632812 C 147.136719 347.21875 147.550781 346.785156 147.941406 346.332031 C 148.332031 345.878906 148.699219 345.40625 149.039062 344.914062 C 149.382812 344.421875 149.699219 343.914062 149.992188 343.390625 C 150.28125 342.863281 150.546875 342.328125 150.78125 341.777344 C 151.019531 341.226562 151.226562 340.664062 151.40625 340.09375 C 151.582031 339.519531 151.734375 338.941406 151.855469 338.355469 C 151.972656 337.769531 152.0625 337.175781 152.125 336.578125 C 152.183594 335.984375 152.214844 335.386719 152.210938 334.785156 L 152.210938 237.96875 L 161.355469 247.101562 C 162.859375 248.648438 164.484375 250.054688 166.234375 251.316406 C 167.980469 252.582031 169.824219 253.6875 171.765625 254.632812 C 173.707031 255.574219 175.714844 256.34375 177.789062 256.941406 C 179.863281 257.535156 181.972656 257.949219 184.121094 258.179688 C 186.714844 258.421875 189.308594 258.378906 191.894531 258.046875 C 194.480469 257.71875 197 257.109375 199.453125 256.222656 C 201.902344 255.339844 204.230469 254.195312 206.429688 252.796875 C 208.628906 251.394531 210.648438 249.773438 212.488281 247.925781 L 220.035156 240.5 L 214.140625 300.195312 C 214.046875 301.09375 214 301.992188 214.003906 302.898438 C 214.003906 303.800781 214.054688 304.699219 214.148438 305.597656 C 214.242188 306.496094 214.386719 307.386719 214.574219 308.269531 C 214.761719 309.152344 214.996094 310.023438 215.273438 310.882812 C 215.550781 311.738281 215.875 312.582031 216.242188 313.40625 C 216.605469 314.234375 217.015625 315.035156 217.464844 315.820312 C 217.914062 316.601562 218.40625 317.359375 218.933594 318.09375 C 219.460938 318.824219 220.027344 319.527344 220.628906 320.199219 C 221.230469 320.875 221.867188 321.515625 222.535156 322.121094 C 223.203125 322.726562 223.902344 323.300781 224.628906 323.835938 C 225.359375 324.367188 226.113281 324.863281 226.890625 325.320312 C 227.671875 325.777344 228.472656 326.191406 229.292969 326.566406 C 230.117188 326.9375 230.957031 327.269531 231.8125 327.554688 C 232.671875 327.839844 233.539062 328.082031 234.421875 328.277344 C 235.304688 328.472656 236.195312 328.621094 237.09375 328.722656 C 237.988281 328.828125 238.890625 328.882812 239.792969 328.894531 C 240.230469 328.890625 240.664062 328.929688 241.09375 329.007812 C 241.523438 329.089844 241.9375 329.210938 242.34375 329.371094 C 242.75 329.53125 243.136719 329.730469 243.503906 329.96875 C 243.871094 330.203125 244.210938 330.476562 244.523438 330.777344 C 244.839844 331.082031 245.121094 331.410156 245.371094 331.769531 C 245.621094 332.125 245.832031 332.503906 246.007812 332.90625 C 246.183594 333.304688 246.320312 333.714844 246.414062 334.140625 C 246.511719 334.566406 246.566406 335 246.578125 335.433594 C 246.578125 335.992188 246.605469 336.550781 246.660156 337.109375 C 246.714844 337.664062 246.796875 338.214844 246.90625 338.765625 C 247.015625 339.3125 247.152344 339.855469 247.3125 340.390625 C 247.476562 340.925781 247.664062 341.449219 247.878906 341.964844 C 248.09375 342.480469 248.332031 342.988281 248.597656 343.480469 C 248.863281 343.972656 249.148438 344.449219 249.460938 344.914062 C 249.773438 345.378906 250.105469 345.828125 250.460938 346.257812 C 250.816406 346.691406 251.191406 347.101562 251.589844 347.496094 C 251.984375 347.890625 252.398438 348.265625 252.832031 348.621094 C 253.265625 348.972656 253.714844 349.304688 254.183594 349.617188 C 254.648438 349.925781 255.128906 350.210938 255.621094 350.472656 C 256.117188 350.734375 256.621094 350.972656 257.140625 351.1875 C 257.65625 351.398438 258.183594 351.585938 258.71875 351.746094 C 259.253906 351.90625 259.796875 352.039062 260.347656 352.148438 C 260.894531 352.253906 261.449219 352.335938 262.003906 352.386719 C 262.5625 352.441406 263.121094 352.46875 263.679688 352.464844 L 276.65625 352.464844 C 277.214844 352.46875 277.773438 352.441406 278.328125 352.386719 C 278.886719 352.335938 279.4375 352.253906 279.988281 352.148438 C 280.539062 352.039062 281.078125 351.90625 281.617188 351.746094 C 282.152344 351.585938 282.679688 351.398438 283.195312 351.1875 C 283.710938 350.972656 284.21875 350.734375 284.710938 350.472656 C 285.207031 350.210938 285.6875 349.925781 286.152344 349.617188 C 286.617188 349.304688 287.066406 348.972656 287.5 348.621094 C 287.933594 348.265625 288.347656 347.894531 288.746094 347.496094 C 289.140625 347.101562 289.515625 346.691406 289.871094 346.257812 C 290.226562 345.828125 290.5625 345.378906 290.875 344.914062 C 291.183594 344.449219 291.472656 343.972656 291.738281 343.480469 C 292 342.988281 292.242188 342.480469 292.453125 341.964844 C 292.667969 341.449219 292.859375 340.925781 293.019531 340.390625 C 293.183594 339.855469 293.320312 339.3125 293.429688 338.765625 C 293.539062 338.214844 293.621094 337.664062 293.675781 337.109375 C 293.730469 336.550781 293.757812 335.992188 293.757812 335.433594 C 293.769531 335 293.824219 334.566406 293.917969 334.140625 C 294.015625 333.714844 294.148438 333.304688 294.324219 332.90625 C 294.5 332.503906 294.714844 332.125 294.964844 331.769531 C 295.214844 331.410156 295.496094 331.082031 295.808594 330.777344 C 296.125 330.476562 296.464844 330.203125 296.832031 329.96875 C 297.199219 329.730469 297.585938 329.53125 297.988281 329.371094 C 298.394531 329.210938 298.8125 329.089844 299.242188 329.007812 C 299.671875 328.929688 300.105469 328.890625 300.539062 328.894531 C 301.445312 328.886719 302.347656 328.832031 303.246094 328.730469 C 304.144531 328.628906 305.035156 328.480469 305.921875 328.285156 C 306.804688 328.09375 307.675781 327.851562 308.535156 327.570312 C 309.390625 327.285156 310.234375 326.957031 311.058594 326.582031 C 311.882812 326.210938 312.6875 325.796875 313.46875 325.339844 C 314.25 324.886719 315.003906 324.390625 315.734375 323.855469 C 316.464844 323.320312 317.164062 322.75 317.832031 322.144531 C 318.503906 321.535156 319.140625 320.894531 319.742188 320.222656 C 320.347656 319.546875 320.914062 318.84375 321.445312 318.113281 C 321.976562 317.378906 322.464844 316.621094 322.917969 315.839844 C 323.367188 315.054688 323.777344 314.25 324.144531 313.425781 C 324.511719 312.597656 324.835938 311.753906 325.113281 310.894531 C 325.394531 310.035156 325.628906 309.164062 325.816406 308.28125 C 326.003906 307.394531 326.148438 306.503906 326.242188 305.605469 C 326.339844 304.707031 326.386719 303.804688 326.390625 302.902344 C 326.390625 301.996094 326.347656 301.09375 326.253906 300.195312 L 318.117188 218.636719 C 318.0625 218.160156 318.058594 217.683594 318.105469 217.203125 C 318.152344 216.726562 318.25 216.257812 318.394531 215.800781 C 318.539062 215.34375 318.730469 214.90625 318.96875 214.488281 C 319.207031 214.070312 319.488281 213.683594 319.808594 213.324219 C 320.128906 212.964844 320.480469 212.644531 320.867188 212.359375 C 321.257812 212.074219 321.671875 211.835938 322.109375 211.636719 C 322.546875 211.441406 323 211.292969 323.472656 211.191406 C 323.941406 211.089844 324.417969 211.039062 324.898438 211.035156 L 329.144531 211.035156 C 329.917969 211.035156 330.6875 210.960938 331.445312 210.808594 C 332.207031 210.660156 332.941406 210.4375 333.660156 210.140625 C 334.375 209.84375 335.054688 209.480469 335.699219 209.050781 C 336.339844 208.621094 336.9375 208.132812 337.484375 207.585938 C 338.03125 207.039062 338.523438 206.441406 338.953125 205.796875 C 339.382812 205.15625 339.746094 204.476562 340.042969 203.761719 C 340.339844 203.046875 340.5625 202.308594 340.714844 201.550781 C 340.863281 200.792969 340.941406 200.023438 340.941406 199.25 L 340.941406 133.722656 C 340.941406 132.78125 340.898438 131.839844 340.808594 130.902344 C 340.714844 129.964844 340.578125 129.03125 340.398438 128.109375 C 340.214844 127.183594 339.988281 126.269531 339.714844 125.367188 C 339.441406 124.464844 339.125 123.578125 338.765625 122.707031 C 338.40625 121.835938 338.003906 120.984375 337.558594 120.15625 C 337.113281 119.324219 336.632812 118.515625 336.109375 117.730469 C 335.585938 116.949219 335.023438 116.191406 334.425781 115.464844 C 333.828125 114.734375 333.195312 114.035156 332.527344 113.371094 C 331.859375 112.703125 331.164062 112.070312 330.433594 111.472656 C 329.703125 110.878906 328.949219 110.316406 328.164062 109.792969 C 327.378906 109.269531 326.570312 108.785156 325.738281 108.34375 C 324.90625 107.898438 324.054688 107.5 323.183594 107.136719 C 322.3125 106.777344 321.421875 106.460938 320.519531 106.191406 C 319.617188 105.917969 318.703125 105.691406 317.777344 105.507812 C 316.851562 105.324219 315.921875 105.1875 314.980469 105.097656 C 314.042969 105.007812 313.101562 104.964844 312.160156 104.964844 Z M 242.390625 184.871094 L 215.96875 211.035156 L 195.796875 231.132812 C 195.246094 231.6875 194.648438 232.183594 194 232.625 C 193.355469 233.0625 192.667969 233.429688 191.949219 233.734375 C 191.226562 234.035156 190.484375 234.261719 189.714844 234.417969 C 188.949219 234.570312 188.175781 234.648438 187.390625 234.648438 C 186.609375 234.648438 185.835938 234.570312 185.070312 234.417969 C 184.300781 234.261719 183.558594 234.035156 182.835938 233.734375 C 182.117188 233.429688 181.429688 233.0625 180.78125 232.625 C 180.136719 232.183594 179.535156 231.6875 178.988281 231.132812 L 133.695312 185.933594 C 132.167969 184.398438 130.789062 182.738281 129.554688 180.957031 C 128.324219 179.175781 127.261719 177.296875 126.367188 175.324219 C 125.46875 173.355469 124.757812 171.320312 124.222656 169.222656 C 123.691406 167.121094 123.347656 164.992188 123.195312 162.832031 C 123.035156 160.703125 123.089844 158.578125 123.359375 156.457031 C 123.625 154.335938 124.101562 152.265625 124.785156 150.242188 C 125.46875 148.214844 126.347656 146.28125 127.421875 144.433594 C 128.492188 142.582031 129.738281 140.859375 131.15625 139.261719 C 132.515625 137.78125 133.992188 136.425781 135.582031 135.195312 L 136.113281 134.78125 C 137.640625 133.667969 139.253906 132.683594 140.949219 131.835938 L 141.480469 131.542969 C 143.226562 130.707031 145.035156 130.039062 146.90625 129.539062 C 150.679688 128.542969 154.515625 128.210938 158.40625 128.535156 L 159.347656 128.535156 C 161.171875 128.71875 162.960938 129.074219 164.714844 129.597656 C 168.691406 130.746094 172.308594 132.59375 175.566406 135.136719 C 176.6875 136.019531 177.808594 136.84375 178.871094 137.847656 L 180.640625 139.675781 C 181.070312 140.097656 181.535156 140.476562 182.039062 140.8125 C 182.542969 141.144531 183.074219 141.429688 183.632812 141.65625 C 184.191406 141.886719 184.769531 142.0625 185.359375 142.179688 C 185.953125 142.296875 186.550781 142.355469 187.15625 142.355469 C 187.761719 142.355469 188.359375 142.296875 188.953125 142.179688 C 189.546875 142.0625 190.121094 141.886719 190.679688 141.65625 C 191.238281 141.429688 191.769531 141.144531 192.273438 140.8125 C 192.777344 140.476562 193.246094 140.097656 193.671875 139.675781 L 194.144531 139.203125 C 195.742188 137.625 197.46875 136.210938 199.335938 134.960938 C 200.757812 134.003906 202.230469 133.140625 203.757812 132.367188 L 204.585938 132.011719 C 207.691406 130.582031 210.9375 129.601562 214.316406 129.066406 L 215.199219 129.066406 C 216.792969 128.949219 218.386719 128.949219 219.976562 129.066406 C 221 129.011719 222.023438 129.011719 223.042969 129.066406 C 223.871094 129.066406 224.695312 129.066406 225.582031 129.363281 C 226.636719 129.582031 227.679688 129.855469 228.707031 130.1875 C 229.472656 130.1875 230.238281 130.539062 231.007812 130.835938 C 231.773438 131.128906 233.246094 131.894531 234.367188 132.425781 L 236.136719 133.308594 C 237.8125 134.332031 239.382812 135.488281 240.855469 136.785156 C 241.699219 137.53125 242.503906 138.3125 243.269531 139.140625 C 244.03125 139.964844 244.75 140.824219 245.425781 141.722656 C 246.101562 142.621094 246.730469 143.554688 247.3125 144.515625 C 247.894531 145.480469 248.421875 146.46875 248.902344 147.484375 C 249.382812 148.503906 249.808594 149.542969 250.179688 150.601562 C 250.554688 151.660156 250.871094 152.738281 251.136719 153.832031 C 251.398438 154.925781 251.605469 156.027344 251.753906 157.140625 C 251.90625 158.253906 252 159.375 252.035156 160.496094 C 252.070312 161.621094 252.046875 162.742188 251.96875 163.863281 C 251.890625 164.984375 251.753906 166.101562 251.5625 167.207031 C 251.367188 168.316406 251.121094 169.410156 250.816406 170.492188 C 250.511719 171.574219 250.152344 172.636719 249.738281 173.683594 C 249.324219 174.726562 248.859375 175.75 248.339844 176.746094 C 247.820312 177.746094 247.253906 178.714844 246.636719 179.652344 C 246.019531 180.59375 245.355469 181.5 244.644531 182.371094 C 243.9375 183.242188 243.183594 184.078125 242.390625 184.871094 Z M 242.390625 184.871094 " fill-opacity="1" fill-rule="nonzero"/></g></svg>