<svg xmlns="http://www.w3.org/2000/svg" width="810" viewBox="0 0 810 1440" height="1440" version="1.0"><path fill="#FFF" d="M-81 -144H891V1584H-81z"/><path fill="#FFF" d="M-81 -144H891V1584H-81z"/><path fill="#FFF" d="M-81 -144H891V1584H-81z"/><path fill="#1E100A" d="M 109.226562 621.054688 C 109.226562 621.054688 130.578125 756.695312 169.835938 786.503906 C 209.09375 816.324219 242.511719 821.785156 281.6875 821.28125 C 320.863281 820.789062 478.675781 833.769531 530.949219 821.3125 C 583.21875 808.851562 646.480469 780.664062 669.664062 758.691406 C 692.863281 736.714844 733.054688 646.398438 722.210938 595.710938 C 711.390625 545.042969 608.546875 445.175781 492.296875 458.597656 C 376.03125 472.003906 109.226562 621.054688 109.226562 621.054688"/><path fill="#CE956F" d="M 722.210938 982.410156 L 409.21875 1167.234375 L 96.210938 982.410156 L 269.359375 887.023438 L 326.554688 683.804688 L 503.25 683.804688 L 544.386719 888.054688 L 722.210938 982.410156"/><path fill="#DEA678" d="M 686.453125 539.726562 C 681.992188 629.164062 535.230469 768.238281 455.394531 804.996094 C 441.085938 811.582031 368.6875 810.226562 350.410156 800.972656 C 279.757812 765.230469 121.523438 617.585938 121.523438 536.734375 C 121.523438 460.820312 115.78125 294.605469 144.152344 223.726562 C 195.128906 96.324219 307.046875 32.933594 408.976562 32.933594 C 483.910156 32.933594 599.488281 105.890625 650.632812 184.976562 C 707.710938 273.285156 692.0625 427.808594 686.453125 539.726562"/><path fill="#E9E9E9" d="M 213.179688 952.703125 C 344.046875 1052.472656 519.929688 1010.746094 630.242188 952.703125 C 680.894531 1007.753906 630.242188 1359.515625 630.242188 1359.515625 L 213.179688 1359.515625 C 213.179688 1359.515625 141.925781 952.703125 213.179688 952.703125"/><path fill="#DF4F4E" d="M 851.132812 1037.5625 C 809.097656 980.921875 614.988281 925.527344 614.988281 925.527344 L 421.695312 1329.707031 L 199.464844 925.527344 C 199.464844 925.527344 -31.269531 951.117188 -37.386719 1037.5625 C -43.484375 1124.019531 -9.851562 1491.199219 -9.851562 1491.199219 L 815.882812 1491.199219 C 815.882812 1491.199219 893.152344 1094.214844 851.132812 1037.5625"/><path fill="#351F17" d="M 298.023438 223.070312 C 216.550781 156.511719 192.335938 377.089844 197.632812 483.433594 C 199.136719 513.484375 203.402344 553.625 196.765625 582.792969 C 190.585938 610 170.769531 630.636719 160.894531 657.417969 C 138.625 717.816406 158.964844 770.25 217.546875 804.488281 C 237.445312 816.113281 265.550781 823.386719 281.6875 821.28125 C 215.011719 821.246094 157.261719 835.699219 103.257812 788.511719 C 62.121094 752.542969 42.257812 701.5625 34.6875 650.371094 C 16.667969 528.085938 31.839844 369.914062 62.628906 252.894531 C 79.78125 187.671875 127.847656 98.628906 185.238281 63.589844 C 212.707031 46.832031 294.785156 32.933594 305.28125 44.953125 C 325.523438 68.152344 298.023438 223.070312 298.023438 223.070312"/><path fill="#351F17" d="M 461.296875 188.3125 C 516.511719 214.863281 479.671875 325.800781 535.769531 431.882812 C 578.25 512.242188 663.367188 539.042969 681.910156 615.578125 C 700.46875 692.113281 701.628906 719.222656 669.664062 758.691406 C 710.832031 724.453125 743.238281 673.179688 757.414062 633.578125 C 778.832031 573.769531 785.324219 504.132812 782.265625 439.714844 C 776.460938 318.507812 752.609375 201.652344 673.945312 102.929688 C 616.28125 30.5625 526.8125 18.480469 440.628906 14.214844 C 401.570312 12.25 327.699219 11.269531 301.390625 42.566406 C 274.625 74.449219 298.023438 181.722656 298.023438 223.070312 C 298.023438 223.070312 374.542969 146.570312 461.296875 188.3125"/></svg>