<svg xmlns="http://www.w3.org/2000/svg" width="810" viewBox="0 0 810 1440" height="1440" version="1.0"><defs><clipPath id="a"><path d="M 0 865 L 810 865 L 810 1439.816406 L 0 1439.816406 Z M 0 865"/></clipPath><clipPath id="b"><path d="M 303 1006 L 497 1006 L 497 1439.816406 L 303 1439.816406 Z M 303 1006"/></clipPath><clipPath id="c"><path d="M 0 886 L 400 886 L 400 1439.816406 L 0 1439.816406 Z M 0 886"/></clipPath><clipPath id="d"><path d="M 400 886 L 810 886 L 810 1439.816406 L 400 1439.816406 Z M 400 886"/></clipPath><clipPath id="e"><path d="M 51 886 L 401 886 L 401 1439.816406 L 51 1439.816406 Z M 51 886"/></clipPath><clipPath id="f"><path d="M 400 886 L 751 886 L 751 1439.816406 L 400 1439.816406 Z M 400 886"/></clipPath></defs><path fill="#FFF" d="M-81 -144H891V1584H-81z"/><path fill="#FFF" d="M-81 -144H891V1584H-81z"/><path fill="#FFF" d="M-81 -144H891V1584H-81z"/><path fill="#F0AC92" d="M 523.824219 928.046875 L 276.785156 928.046875 L 276.785156 688.707031 L 523.824219 688.707031 L 523.824219 928.046875"/><path fill="#F8BFA7" d="M 653.585938 277.078125 C 599.039062 98.757812 438.488281 82.964844 400.304688 81.742188 C 362.121094 82.964844 201.570312 98.757812 147.023438 277.078125 C 147.023438 277.078125 143.433594 438.597656 174.796875 656.691406 C 177.957031 678.945312 194.464844 698.253906 211.113281 712.46875 C 262.71875 756.761719 333.773438 809.308594 400.304688 814.191406 C 466.910156 809.308594 537.890625 756.761719 589.496094 712.46875 C 606.144531 698.253906 622.652344 678.945312 625.882812 656.691406 C 657.175781 438.597656 653.585938 277.078125 653.585938 277.078125"/><path fill="#F8BFA7" d="M 669.953125 450.804688 C 645.117188 446.785156 620.429688 474.132812 614.757812 511.824219 C 609.160156 549.511719 624.734375 583.324219 649.640625 587.34375 C 674.472656 591.363281 699.234375 564.085938 704.832031 526.324219 C 710.429688 488.636719 694.855469 454.824219 669.953125 450.804688"/><path fill="#F8BFA7" d="M 130.660156 450.804688 C 105.753906 454.824219 90.179688 488.636719 95.777344 526.324219 C 101.375 564.085938 126.136719 591.363281 150.96875 587.34375 C 175.875 583.324219 191.449219 549.511719 185.851562 511.824219 C 180.253906 474.132812 155.5625 446.785156 130.660156 450.804688"/><g clip-path="url(#a)"><path fill="#F0AC92" d="M 944.550781 1117.277344 C 929.117188 1016.847656 844.210938 985.980469 844.210938 985.980469 L 523.824219 865.519531 L 276.785156 865.519531 L -43.601562 985.980469 C -43.601562 985.980469 -128.507812 1016.847656 -143.9375 1117.277344 L -174.871094 1460.851562 L 975.410156 1460.851562 L 944.550781 1117.277344"/><path fill="#D1F0FC" d="M 944.550781 1117.277344 C 929.117188 1016.847656 844.210938 985.980469 844.210938 985.980469 L 523.824219 865.519531 L 400.304688 902.921875 L 276.785156 865.519531 L -43.601562 985.980469 C -43.601562 985.980469 -128.507812 1016.847656 -143.9375 1117.277344 L -174.871094 1460.851562 L 975.410156 1460.851562 L 944.550781 1117.277344"/></g><path fill="#EC3655" d="M 432.675781 1006.511719 L 460.878906 905.003906 L 339.800781 905.003906 L 367.9375 1006.511719 L 432.675781 1006.511719"/><g clip-path="url(#b)"><path fill="#CC2E48" d="M 432.675781 1006.511719 L 367.9375 1006.511719 L 303.628906 1460.851562 L 496.980469 1460.851562 L 432.675781 1006.511719"/></g><g clip-path="url(#c)"><path fill="#2F497B" d="M 399.730469 1349.582031 L 221.308594 886.410156 L -43.601562 985.980469 C -43.601562 985.980469 -128.507812 1016.847656 -143.9375 1117.277344 L -174.871094 1460.851562 L 399.730469 1460.851562 L 399.730469 1349.582031"/></g><g clip-path="url(#d)"><path fill="#2F497B" d="M 400.949219 1349.582031 L 579.304688 886.410156 L 844.214844 985.980469 C 844.214844 985.980469 929.117188 1016.847656 944.621094 1117.277344 L 975.410156 1460.851562 L 400.949219 1460.851562 L 400.949219 1349.582031"/></g><g clip-path="url(#e)"><path fill="#36538C" d="M 400.949219 1349.582031 L 400.949219 1460.851562 L 187.859375 1154.679688 L 233.222656 1086.625 L 51.566406 950.230469 L 221.308594 886.410156 L 400.949219 1349.582031"/></g><g clip-path="url(#f)"><path fill="#36538C" d="M 400.949219 1349.582031 L 400.949219 1460.851562 L 614.042969 1154.679688 L 568.609375 1086.625 L 750.265625 950.230469 L 580.523438 886.410156 L 400.953125 1349.582031"/></g><path fill="#9BDFF8" d="M 273.699219 809.453125 L 400.304688 902.921875 L 297.527344 1011.320312 L 164.894531 907.585938 L 273.699219 809.453125"/><path fill="#9BDFF8" d="M 526.839844 809.453125 L 400.304688 902.921875 L 503.082031 1011.320312 L 635.714844 907.585938 L 526.839844 809.453125"/><path fill="#51558F" d="M 164.964844 546.855469 L 176.953125 546.855469 L 187 416.777344 L 235.589844 271.40625 C 235.589844 271.40625 252.382812 208.304688 247.214844 181.601562 C 247.214844 181.601562 266.09375 204.714844 317.480469 204.714844 C 317.480469 204.714844 463.105469 215.414062 559.136719 195.8125 C 559.136719 195.8125 598.539062 208.304688 601.984375 238.601562 L 594.230469 334.796875 L 622.511719 546.855469 L 639.375 546.855469 L 647.414062 455.542969 C 647.414062 455.542969 658.253906 446.28125 669.953125 450.804688 L 679.066406 217.207031 C 679.066406 217.207031 661.195312 113.832031 613.609375 81.742188 C 613.609375 81.742188 371.8125 -32.253906 187 101.34375 C 187 101.34375 122.117188 179.804688 116.949219 251.089844 L 130.660156 450.804688 C 130.660156 450.804688 142.714844 447.070312 159.796875 461.285156 L 164.964844 546.855469"/></svg>